<svg width="53" height="66" viewBox="0 0 53 66" fill="none" xmlns="http://www.w3.org/2000/svg">
<path d="M39.4489 46.2464C39.0304 46.5493 38.6786 46.7868 38.3492 47.0496C38.1607 47.201 37.9396 47.3658 37.8491 47.5751C37.5834 48.1898 37.2569 48.6248 36.2701 48.1482C36.5565 48.6233 36.7702 48.8326 36.8088 49.0701C36.877 49.4962 36.8399 49.9372 36.8459 50.3736C36.3324 50.3276 35.8145 50.3113 35.3114 50.2148C35.1659 50.1866 35.0635 49.9327 34.8929 49.7249C34.8112 49.9579 34.7459 50.1435 34.6614 50.3855C34.4744 50.3202 34.3082 50.2875 34.1687 50.2074C33.6715 49.9193 33.2827 50.0827 33.063 50.5458C32.8538 50.9853 32.6549 51.4648 32.6149 51.9414C32.5154 53.1216 32.5407 54.3138 32.4487 55.4955C32.419 55.8815 32.2706 56.3373 32.0153 56.6105C31.5122 57.1494 30.9572 56.9623 30.7212 56.1978C30.5387 56.3061 30.3695 56.4086 30.1914 56.514C29.9332 56.2245 29.6794 55.9379 29.396 55.6202C28.5456 56.5348 27.489 57.1345 27.1937 58.4395C26.9963 59.3095 25.861 59.7578 24.512 59.6777C24.6129 59.4164 24.7035 59.1818 24.7925 58.9487C24.1098 58.7617 24.1098 58.7617 23.9214 57.4701C23.7819 57.6913 23.6958 57.8264 23.583 58.0045C23.2224 57.5888 22.8633 57.1731 22.5026 56.756C22.4462 56.7708 22.3898 56.7871 22.3335 56.802C22.3335 57.1242 22.283 57.4552 22.3438 57.7655C22.4833 58.4796 22.1183 58.8908 21.5647 59.2071C21.2175 59.406 20.8865 59.4119 20.7129 58.9784C20.5051 58.4603 20.1668 58.5241 19.6726 58.7335C19.9367 59.1269 20.1712 59.4758 20.5274 60.0058C20.0109 59.9598 19.588 60.0444 19.3372 59.8751C18.7243 59.4594 18.1945 59.5871 17.7077 59.9865C17.1215 60.466 16.7312 60.4779 16.3053 59.7697C15.8408 58.9948 15.6048 58.2213 15.7681 57.3201C15.817 57.0529 15.7265 56.7589 15.6968 56.4338C14.5052 57.1479 14.4399 57.4077 14.5883 58.6622C14.6639 59.2976 14.4888 59.9627 14.4146 60.7377C14.1727 60.5714 14.0362 60.5284 13.9946 60.4408C13.4129 59.2204 12.8371 57.9986 12.9128 56.5912C12.9276 56.3225 12.9157 56.0508 12.9009 55.7821C12.8801 55.4361 12.7258 55.0472 12.8356 54.7547C13.2497 53.6531 12.6946 52.9539 12.0105 52.216C11.8428 52.0349 11.9912 51.5494 12.0149 51.2065C12.0327 50.9304 12.2138 50.5221 12.0936 50.4018C11.4005 49.7056 11.6825 48.8044 11.494 48.0101C11.4881 47.9864 11.4911 47.9597 11.4851 47.9359C11.3976 47.6063 11.1557 47.2129 11.2596 46.962C11.3798 46.671 11.8027 46.5062 12.147 46.2479C11.7701 45.7817 11.4169 45.323 11.0414 44.8821C10.7431 44.5317 10.8203 43.5771 11.2121 43.0308C11.5668 42.5349 11.92 42.0361 12.2746 41.5387C12.2464 41.463 12.2183 41.3888 12.1915 41.3131C11.8873 41.3353 11.4332 41.2388 11.3041 41.4007C10.7461 42.0999 10.3216 41.662 9.86753 41.3279C9.63306 41.1542 9.41936 40.9538 9.28876 40.8454C9.57963 40.0853 9.85121 39.4306 10.0664 38.7566C10.099 38.6541 9.90018 38.421 9.75772 38.3275C9.38522 38.0885 8.99492 37.8673 8.58978 37.6862C7.63406 37.2586 7.39513 36.448 7.4441 35.5186C7.45597 35.3093 7.69787 35.0569 7.8997 34.9233C8.30929 34.6516 8.79606 34.4913 9.18488 34.1973C9.34961 34.0726 9.43568 33.7148 9.406 33.4832C9.31992 32.8196 8.9133 32.2184 9.28728 31.4775C9.51285 31.0307 9.3036 30.5497 8.6803 30.4546C8.46067 30.4205 8.24103 30.3314 8.02584 30.3448C7.15175 30.4012 6.46315 30.1102 5.84728 29.4674C5.59796 29.2076 5.11565 29.1022 4.72534 29.0636C3.85421 28.9775 3.21608 28.7607 2.8703 27.7913C2.67144 27.2316 2.05704 26.7684 1.53763 26.3868C0.816388 25.8568 0.852005 25.6935 1.41742 25.0195C2.06446 24.249 3.07064 23.6373 2.94005 22.3769C2.91482 22.1304 3.12258 21.8602 3.3348 21.547C3.53218 22.4585 4.03081 22.8653 4.95685 22.7406C4.85891 22.5684 4.77135 22.417 4.62443 22.1601C6.1797 21.3184 6.31623 19.9258 5.78791 18.367C6.04317 18.3224 6.16931 18.2586 6.22422 18.2972C6.97811 18.8316 7.86705 18.6505 8.69366 18.747C9.08545 18.793 9.50246 18.5377 9.91502 18.508C10.2519 18.4828 10.5977 18.5896 11.0414 18.652C11.2032 18.3773 11.4436 17.9676 11.7122 17.5088C9.9358 17.5831 10.2994 15.8951 9.62712 14.9731C8.89104 15.377 8.18612 15.4556 7.32241 15.1661C6.2168 14.7965 5.85915 13.8582 5.23288 13.101C4.80103 12.5799 4.32762 12.0811 3.80524 11.655C3.6509 11.5288 3.26208 11.7204 2.98308 11.7115C2.71744 11.7025 2.3865 11.6981 2.21287 11.5437C2.08079 11.4264 2.1075 11.076 2.13867 10.8385C2.19061 10.4258 2.31081 10.022 2.38353 9.61221C2.47999 9.06736 2.56013 8.51806 2.64472 7.97024C2.7768 7.11956 3.19678 6.71426 4.11244 6.46781C4.31872 6.41288 4.57842 6.2377 4.65114 6.05361C5.12603 4.85256 5.11119 4.84662 6.245 4.44578C6.1337 3.63815 5.99568 3.48524 5.00583 3.10221C4.87078 3.31005 4.7298 3.52532 4.57991 3.75395C4.09166 3.06509 4.11986 2.73105 4.83813 1.46023C4.93756 1.28356 5.20024 1.20042 5.49853 1C5.55641 2.31388 6.30881 2.67761 7.25266 2.96859C7.65483 3.0933 7.90712 3.64706 8.27813 3.94398C8.99492 4.52001 9.45052 5.53845 10.657 5.33209C10.8796 5.29349 11.1468 5.65573 11.4154 5.70176C11.7077 5.75223 12.0268 5.64979 12.3503 5.53845C11.7671 5.18808 11.6172 4.3374 10.7787 4.33146C10.6793 4.33146 10.4537 3.89647 10.5131 3.77028C10.6036 3.57877 11.0414 3.33084 11.0741 3.3635C11.5668 3.8549 12.5344 3.64409 12.7659 4.49625C12.8979 4.98469 13.1443 5.47758 13.1309 5.96305C13.1013 7.0676 13.9679 7.38233 14.6684 7.70152C15.5455 8.0994 16.5323 8.25528 17.4762 8.51657C17.7359 8.23004 18.009 7.92867 18.3147 7.59018C18.2063 7.47289 18.0891 7.35858 17.9867 7.23239C17.8962 7.12104 17.7982 7.00524 17.7537 6.8746C17.7285 6.80185 17.7834 6.67863 17.8398 6.60588C18.1292 6.23622 18.4304 5.87694 18.8653 5.34693C18.8653 5.81013 18.8653 6.01946 18.8653 6.22137C19.1606 6.44258 19.4915 6.62073 19.726 6.88647C19.916 7.10174 19.9842 7.42093 20.1163 7.68965C20.379 8.22262 20.6506 8.75263 20.98 9.40882C20.2157 9.90765 20.6209 10.7806 20.7099 11.6283C20.8702 13.1486 21.0676 14.6688 20.6773 16.1965C20.468 17.0174 20.698 17.2045 21.4979 17.0353C21.679 16.9967 21.8942 17.0219 22.0723 17.0813C23.0191 17.402 23.9644 17.7271 24.8979 18.0819C26.1489 18.5585 27.3807 18.5644 28.651 18.1294C28.973 18.0196 29.3856 18.168 29.7551 18.2022C29.8011 18.2066 29.8427 18.2675 29.8857 18.266C30.8548 18.2526 31.8907 18.4442 32.7766 18.1621C33.7754 17.8444 34.7489 17.7464 35.7492 17.7805C36.6262 17.8102 37.4974 17.9884 38.3714 18.0893C38.5644 18.1116 38.7632 18.0789 38.9576 18.0775C39.3361 18.076 39.7145 18.0997 40.0914 18.073C40.4788 18.0463 40.9492 18.0953 41.2282 17.8948C41.81 17.4777 42.3798 17.4717 43.0402 17.5504C43.8876 17.6514 44.7573 17.5801 45.6002 17.7033C46.0068 17.7627 46.3763 18.0923 46.7577 18.3105C47.2119 18.5689 47.6363 18.8984 48.1171 19.0855C48.5712 19.2622 49.5344 20.1173 49.6249 20.585C49.7243 21.0957 49.3682 21.5945 48.8651 21.5069C48.4021 21.4267 47.9791 21.1432 47.525 20.9873C47.3736 20.9353 47.1822 20.9962 47.0085 21.0051C47.0278 21.158 46.9878 21.3807 47.0738 21.4535C47.8292 22.0829 47.6126 22.7243 47.1866 23.425C47.0635 23.6269 47.0382 23.9521 47.0946 24.1911C47.4196 25.5807 47.433 25.5777 46.0884 25.8598C46.7577 27.7304 45.1387 27.0564 44.3076 27.3399C44.4694 27.6309 44.594 27.8566 44.7677 28.1698C44.4337 28.2188 44.1607 28.2589 43.8832 28.3005C43.9128 28.7206 44.0093 29.1363 43.9559 29.5312C43.8713 30.1666 43.4291 30.3062 42.9438 29.9128C42.7523 29.7569 42.549 29.6158 42.3442 29.4778C42.267 29.4258 42.1736 29.3991 41.9747 29.3115C42.0578 29.7806 42.1246 30.1577 42.2255 30.7263C41.758 30.5304 41.4582 30.4056 41.1199 30.2631C40.6346 31.4627 39.5275 31.3855 38.5985 31.6275C38.2409 31.9021 37.8595 32.153 37.53 32.4589C37.1976 32.7677 36.8755 33.1032 36.6277 33.4803C36.4748 33.7148 36.4377 34.0429 36.4051 34.3339C36.3383 34.9322 36.2181 35.4518 35.3603 35.3152C35.3603 35.3806 35.3618 35.4459 35.3618 35.5127C35.669 35.6968 35.9747 35.8824 36.3309 36.0961C35.9985 36.2164 35.6942 36.3263 35.2505 36.4866C35.5162 36.7731 35.6794 37.0686 35.9302 37.1962C36.4496 37.4605 36.5698 37.8569 36.6158 38.3943C36.6663 38.9807 36.8741 39.5508 36.975 40.1343C37.0699 40.691 37.1931 41.2596 37.1649 41.8149C37.1308 42.4829 37.4513 42.6878 38.045 42.7606C38.0835 41.9366 38.1221 41.1394 38.1592 40.3421C38.882 40.7935 38.9131 41.5165 39.1788 42.1192C39.4147 42.6537 39.6522 43.1911 39.8406 43.7434C39.9816 44.1591 40.2547 44.1695 40.5263 43.9883C41.1525 43.5712 41.7654 43.1287 42.3383 42.6418C42.4748 42.5245 42.5 42.183 42.4585 41.9663C42.3383 41.3383 42.0949 40.7281 42.0222 40.0972C41.9643 39.5924 42.089 39.0669 42.1335 38.5354C43.0966 38.9184 43.5315 38.712 43.7362 37.7188C43.8342 37.2467 43.7674 36.7405 43.7852 36.2506C43.7941 36.0041 43.7912 35.7473 43.8654 35.5186C43.9143 35.3657 44.0909 35.2544 44.2111 35.1252C44.3106 35.2544 44.4441 35.3687 44.499 35.5142C44.554 35.6612 44.5317 35.8393 44.5614 36.2699C45.2084 35.7963 45.716 35.4266 46.2606 35.0287C46.3392 35.1312 46.452 35.2811 46.5158 35.3628C46.7726 35.2974 47.0249 35.149 47.1792 35.2173C47.3247 35.2826 47.3899 35.5706 47.4523 35.7725C47.804 36.9142 48.1572 38.0558 48.4837 39.2049C48.6306 39.7216 48.9764 40.2441 48.3917 40.7652C48.2462 40.8959 48.2166 41.4111 48.3472 41.5536C48.8948 42.1519 48.822 42.8155 48.6959 43.5043C48.6143 43.9468 48.6543 44.2526 49.1931 44.3847C49.4305 44.4426 49.7332 44.7232 49.7911 44.9563C50.0775 46.1232 50.2764 47.3094 50.5361 48.4837C50.8433 49.8778 51.2143 51.2585 51.4785 52.6584C51.5542 53.0637 51.3167 53.5195 51.293 53.956C51.2677 54.4326 51.3048 54.9151 51.3508 55.3916C51.4221 56.1399 51.6031 56.8851 51.5987 57.6319C51.5868 59.7222 51.7619 61.7754 52.4579 63.7618C52.5277 63.9623 52.5692 64.1716 52.6256 64.3883C51.9534 64.663 51.5349 64.5606 51.4429 63.845C51.3983 63.502 51.3048 63.3031 50.8878 63.3506C49.806 63.4753 49.806 63.459 49.5952 62.3841C49.5759 62.2891 49.5403 62.1941 49.4973 62.1065C49.478 62.0679 49.4216 62.0471 49.4795 62.0887C48.9081 62.2416 48.408 62.3752 47.8277 62.5311C47.7194 62.7389 47.482 63.07 47.381 63.4397C47.3202 63.6624 47.5176 63.943 47.5191 64.1983C47.5191 64.4655 47.4226 64.7328 47.3677 65C47.1243 64.9139 46.737 64.8946 46.6613 64.7298C46.3318 64.0216 45.9489 63.2972 46.1211 62.2876C46.5233 62.589 46.7845 62.785 47.0946 63.0166C47.2534 62.4301 47.1748 61.9684 46.8498 61.4711C46.5633 61.0346 46.4298 60.4972 46.2487 59.9954C46.1315 59.6717 46.0499 59.3362 45.9044 58.8418C46.3096 58.8003 46.7622 58.7528 47.3172 58.6949C47.1926 58.2064 47.0664 57.7046 46.9403 57.2043C46.8898 57.2088 46.8409 57.2132 46.7904 57.2192C46.7904 57.5562 46.7904 57.8932 46.7904 58.4024C46.3214 57.9496 45.8985 57.6438 45.615 57.2414C45.2975 56.7886 45.7427 56.6075 46.0692 56.56C46.8023 56.4561 46.8038 56.0092 46.7548 55.4287C46.6509 54.1995 46.6034 52.9658 46.5307 51.7335C46.5262 51.6623 46.4995 51.5925 46.4535 51.3876C45.6863 51.7053 44.9324 51.977 44.2141 52.3244C43.4083 52.7134 43.2554 53.5106 43.1886 54.3331C43.1174 54.3524 43.0477 54.3717 42.9764 54.391C42.828 54.1282 42.5772 53.8773 42.5475 53.6027C42.3709 51.9637 41.6675 50.5652 40.5945 49.3671C39.7605 48.4377 39.1431 47.4712 39.4489 46.2464Z" stroke="#208F4F" stroke-width="0.5"/>
<path fill-rule="evenodd" clip-rule="evenodd" d="M17.8086 25.0584C21.2217 21.6653 26.7555 21.6653 30.1687 25.0584C33.5818 28.4514 33.5818 33.9527 30.1687 37.3457L23.9886 43.4894L17.8086 37.3457C14.3954 33.9527 14.3954 28.4514 17.8086 25.0584ZM23.9886 33.6845C25.3677 33.6845 26.4857 32.573 26.4857 31.202C26.4857 29.831 25.3677 28.7196 23.9886 28.7196C22.6095 28.7196 21.4915 29.831 21.4915 31.202C21.4915 32.573 22.6095 33.6845 23.9886 33.6845Z" fill="#208F4F"/>
</svg>
