<svg width="64" height="64" viewBox="0 0 64 64" fill="none" xmlns="http://www.w3.org/2000/svg">
<path d="M19.2001 29.8667H17.0667V34.1333H19.2001V29.8667ZM44.8001 34.1333H46.9334V29.8667H44.8001V34.1333ZM36.2667 42.6667H34.1334V46.9333H36.2667V42.6667ZM44.8001 46.9333H46.9334V42.6667H44.8001V46.9333ZM19.2001 17.0667H17.0667V21.3333H19.2001V17.0667ZM27.7334 21.3333H29.8667V17.0667H27.7334V21.3333ZM44.8001 2.13333L46.3105 0.622933L45.6833 0H44.8001V2.13333ZM57.6001 14.9333H59.7334V14.0501L59.1105 13.4229L57.6001 14.9333ZM19.2001 34.1333H44.8001V29.8667H19.2001V34.1333ZM36.2667 46.9333H44.8001V42.6667H36.2667V46.9333ZM19.2001 21.3333H27.7334V17.0667H19.2001V21.3333ZM53.3334 59.7333H10.6667V64H53.3334V59.7333ZM8.53339 57.6V6.4H4.26672V57.6H8.53339ZM10.6667 4.26667H44.8001V0H10.6667V4.26667ZM55.4667 14.9333V57.6H59.7334V14.9333H55.4667ZM43.2897 3.64373L56.0897 16.4437L59.1105 13.4229L46.3105 0.622933L43.2897 3.64373ZM10.6667 59.7333C10.1009 59.7333 9.55831 59.5086 9.15823 59.1085C8.75815 58.7084 8.53339 58.1658 8.53339 57.6H4.26672C4.26672 59.2974 4.94101 60.9253 6.14124 62.1255C7.34147 63.3257 8.96934 64 10.6667 64V59.7333ZM53.3334 64C55.0308 64 56.6586 63.3257 57.8589 62.1255C59.0591 60.9253 59.7334 59.2974 59.7334 57.6H55.4667C55.4667 58.1658 55.242 58.7084 54.8419 59.1085C54.4418 59.5086 53.8992 59.7333 53.3334 59.7333V64ZM8.53339 6.4C8.53339 5.83421 8.75815 5.29158 9.15823 4.89151C9.55831 4.49143 10.1009 4.26667 10.6667 4.26667V0C8.96934 0 7.34147 0.674284 6.14124 1.87452C4.94101 3.07475 4.26672 4.70261 4.26672 6.4H8.53339Z" fill="#208F4F"/>
</svg>
