<svg width="59" height="64" viewBox="0 0 59 64" fill="none" xmlns="http://www.w3.org/2000/svg">
<g clip-path="url(#clip0_30_368)">
<path d="M39.2462 53.5057C38.7167 48.6447 34.6425 44.8206 29.9041 44.5436C23.935 44.198 19.7555 48.4829 19.0348 52.7654C18.6916 54.7976 18.8534 56.8396 18.8485 58.8742C18.8411 61.936 20.8218 63.924 23.8786 63.9804C25.5921 64.0123 27.3081 63.9877 29.0216 63.9853C30.8601 63.9853 32.6986 64.0245 34.5347 63.9755C37.2042 63.902 39.2315 62.0095 39.3369 59.3767C39.4153 57.4255 39.457 55.4619 39.2462 53.5057ZM36.9027 59.4209C36.8561 60.7103 35.7775 61.5364 34.2307 61.5879C32.5221 61.6492 30.8086 61.6026 29.0951 61.6026V61.5854C27.3841 61.5854 25.6681 61.6443 23.9595 61.5683C22.0769 61.4825 21.2876 60.5755 21.2826 58.6855C21.2777 57.3397 21.2728 55.9963 21.2826 54.6505C21.3145 50.7088 24.3493 47.3259 28.1268 47.0097C32.527 46.642 36.0864 49.2061 36.7899 53.3194C37.1356 55.3394 36.9787 57.3887 36.9027 59.4209Z" fill="#208F4F"/>
<path d="M20.5227 25.45C20.4688 20.1943 16.3432 15.7818 11.1708 15.4362C5.5866 15.0636 0.894707 18.797 0.149495 24.1826C-0.0980921 25.9746 0.0391839 27.769 0.0269271 29.5609C0.00731624 32.9095 1.96595 34.8509 5.34882 34.8853C6.98142 34.9024 8.61403 34.8902 10.2466 34.8902V34.8411C12.166 34.8411 14.0904 34.9367 16.0024 34.8191C18.6768 34.6573 20.4958 32.6398 20.5227 29.9825C20.5374 28.4725 20.5374 26.9625 20.5227 25.45ZM18.0959 29.6516C18.0861 31.4926 17.1889 32.4339 15.3405 32.4756C13.6687 32.5099 11.9969 32.4829 10.3251 32.4805C8.69247 32.4805 7.06232 32.4952 5.43217 32.4756C3.33871 32.4535 2.40719 31.5514 2.44642 29.4996C2.48319 27.6317 2.2405 25.7515 2.63762 23.8934C3.47108 19.9908 7.12115 17.4733 11.335 17.8925C15.0317 18.2577 18.0272 21.5646 18.0934 25.3715C18.1179 26.7958 18.1032 28.2249 18.0959 29.6516Z" fill="#208F4F"/>
<path d="M58.1044 25.3348C58.0554 20.2335 54.1357 15.9559 49.054 15.4484C43.8768 14.9337 39.0525 18.2994 37.9371 23.207C37.4591 25.3053 37.7165 27.4356 37.6945 29.5511C37.6552 32.9413 39.5599 34.8362 42.9771 34.8852C44.6097 34.9073 46.2423 34.8877 47.8749 34.8877V34.8338C49.8336 34.8338 51.7996 34.9294 53.7508 34.8117C56.3199 34.6548 58.0824 32.6717 58.1044 30.1125C58.1167 28.5191 58.1192 26.9281 58.1044 25.3348ZM55.7389 30.007C55.6972 31.5122 54.7338 32.4192 53.1086 32.4633C51.3559 32.5148 49.6031 32.4756 47.8504 32.4756C47.8504 32.478 47.8504 32.478 47.8504 32.4805C46.2987 32.4805 44.7495 32.4854 43.2002 32.478C40.9204 32.4658 40.0821 31.6274 40.0894 29.3893C40.0943 28.0827 40.0649 26.7786 40.1041 25.4745C40.2365 21.2165 43.5017 17.9219 47.6175 17.8655C52.1109 17.8066 55.4913 20.8488 55.7291 25.2392C55.8149 26.8227 55.783 28.4186 55.7389 30.007Z" fill="#208F4F"/>
<path d="M47.9656 0.00245067C44.3082 -0.0196115 41.3494 2.91221 41.3372 6.56963C41.3274 10.2663 44.2102 13.1981 47.8725 13.2153C51.5373 13.2324 54.501 10.3153 54.5304 6.66033C54.5598 3.02252 51.6035 0.0220615 47.9656 0.00245067ZM47.897 10.7909C45.5682 10.7762 43.7444 8.92784 43.7493 6.58434C43.7542 4.27271 45.6344 2.40968 47.9509 2.42684C50.2454 2.444 52.1403 4.36341 52.1158 6.64317C52.0913 8.95235 50.2037 10.8056 47.897 10.7909Z" fill="#208F4F"/>
<path d="M29.1417 29.127C25.4548 29.1172 22.5255 32.0147 22.5132 35.6844C22.501 39.3541 25.4132 42.3129 29.0632 42.3423C32.6814 42.3717 35.6893 39.3957 35.7162 35.7628C35.7456 32.1299 32.782 29.1368 29.1417 29.127ZM29.1245 39.913C26.8006 39.9228 24.9229 38.0426 24.9327 35.7163C24.945 33.3605 26.7908 31.5342 29.1417 31.5514C31.4141 31.571 33.2796 33.4218 33.2918 35.6746C33.3065 37.9862 31.419 39.9032 29.1245 39.913Z" fill="#208F4F"/>
<path d="M10.3006 1.5196e-06C6.65544 -0.00244984 3.67705 2.96124 3.66969 6.59905C3.66234 10.2369 6.63093 13.2128 10.2736 13.2177C13.9286 13.2226 16.8825 10.2736 16.88 6.62111C16.8776 2.95389 13.9458 0.00490423 10.3006 1.5196e-06ZM10.3251 10.7933C8.00124 10.8105 6.12595 8.97442 6.10389 6.65543C6.07937 4.35116 7.94486 2.44155 10.2369 2.42684C12.5632 2.41214 14.441 4.25556 14.4508 6.56718C14.4606 8.91068 12.6417 10.7762 10.3251 10.7933Z" fill="#208F4F"/>
<path d="M43.9233 53.1969C43.4012 53.2189 43.0163 53.0081 42.8349 52.5424C42.629 52.0104 42.6658 51.4981 43.1511 51.101C43.688 50.6622 44.2346 50.2356 44.7543 49.7772C47.8136 47.0758 50.0321 43.8008 51.4146 39.9596C51.4833 39.7683 51.5568 39.5771 51.6206 39.3835C51.8804 38.5843 52.4271 38.2412 53.2213 38.5231C53.9739 38.7903 54.116 39.4203 53.8954 40.1312C53.1527 42.5261 52.0348 44.7421 50.6204 46.8037C49.0859 49.0394 47.2277 50.9809 45.0877 52.6478C44.7421 52.9223 44.4111 53.2606 43.9233 53.1969Z" fill="#208F4F"/>
<path d="M4.17456 39.6997C4.21868 39.0844 4.47117 38.6849 4.98596 38.5059C5.49584 38.3294 5.97631 38.4471 6.29989 38.881C6.48864 39.1334 6.58424 39.4595 6.6921 39.7634C8.23155 44.0925 10.7785 47.7058 14.3771 50.5715C14.5046 50.672 14.6345 50.7725 14.7595 50.8779C15.3675 51.3902 15.6224 52.008 15.0757 52.6821C14.534 53.3513 13.8697 53.2508 13.2372 52.7654C10.4255 50.6033 8.1237 47.9902 6.37588 44.899C5.61351 43.5508 4.97125 42.1462 4.45647 40.6852C4.3339 40.3395 4.253 39.9816 4.17456 39.6997Z" fill="#208F4F"/>
<path d="M29.1172 5.87835C31.5784 5.86609 33.9807 6.25341 36.3487 6.89076C37.1944 7.11874 37.9813 7.49625 37.6577 8.55523C37.3366 9.60686 36.4713 9.47694 35.6354 9.2318C31.3479 7.98161 27.0507 8.00858 22.7461 9.14846C22.55 9.19994 22.3588 9.28328 22.1603 9.31515C21.4371 9.43282 20.8316 9.25632 20.6306 8.47679C20.4345 7.71196 20.8145 7.2266 21.5401 7.00107C24.0086 6.23625 26.5384 5.88815 29.1172 5.87835Z" fill="#208F4F"/>
</g>
<defs>
<clipPath id="clip0_30_368">
<rect width="58.1143" height="64" fill="white"/>
</clipPath>
</defs>
</svg>
