<svg width="60" height="64" viewBox="0 0 60 64" fill="none" xmlns="http://www.w3.org/2000/svg">
<path d="M17.9087 18.8792L17.8446 18.9647C17.754 19.0855 17.6623 19.198 17.5798 19.2993C17.5412 19.3466 17.5046 19.3915 17.4711 19.4336C17.3615 19.5714 17.2754 19.6902 17.2115 19.8148L16.989 19.7007L17.2115 19.8149C16.9944 20.238 16.9748 20.7216 17.0705 21.2123C17.1691 21.7167 17.3014 22.2113 17.4359 22.7148C17.4804 22.8812 17.5251 23.0485 17.569 23.2175C17.8837 24.4251 18.2327 25.573 18.9639 26.552L18.9654 26.5541C19.0343 26.6483 19.074 26.7665 19.0978 26.8371C19.1004 26.8448 19.1028 26.852 19.105 26.8585L19.1054 26.8597C19.5835 28.2738 20.2093 29.6124 21.0396 30.8377L21.0397 30.8378C21.4096 31.3848 21.6993 31.9853 21.5787 32.7159C21.5142 33.1141 21.6306 33.4609 21.8058 33.88L21.806 33.8803C22.9567 36.6425 24.3781 39.2403 26.1839 41.6227L26.186 41.6254C26.2351 41.6921 26.3082 41.7532 26.3769 41.7851L26.378 41.7856C26.9739 42.0662 27.5696 42.3415 28.1665 42.6174C28.6277 42.8305 29.0895 43.0439 29.5525 43.2603L29.5549 43.2614C29.6277 43.2963 29.6821 43.3088 29.7279 43.3098C29.7729 43.3108 29.8258 43.301 29.8964 43.268C29.8964 43.268 29.8965 43.268 29.8965 43.268L30.0024 43.4944C30.4002 43.3067 30.8005 43.1229 31.201 42.9389C31.7184 42.7013 32.2362 42.4635 32.75 42.2167C32.9983 42.0963 33.2723 41.9504 33.4337 41.7404L17.9087 18.8792ZM17.9087 18.8792L17.8912 18.7738C17.539 16.6503 17.2754 14.4275 17.3337 12.1764M17.9087 18.8792L17.3337 12.1764M33.2348 41.5888C34.8867 39.4126 36.3081 37.0982 37.4442 34.6126C37.8889 33.6362 38.2334 32.7251 38.0626 31.7028L38.0626 31.7027C38.0427 31.5838 38.0805 31.4737 38.1117 31.404C38.1459 31.3273 38.1919 31.2568 38.2335 31.2025L38.2336 31.2023C39.083 30.0937 39.9089 29.0001 40.4924 27.7555L40.4929 27.7543C40.5397 27.6558 40.5865 27.5539 40.6341 27.4502C40.7543 27.1883 40.8797 26.9153 41.0229 26.659M33.2348 41.5888L41.2411 26.781M33.2348 41.5888C33.1144 41.7451 32.8946 41.8688 32.6412 41.9916L33.2348 41.5888ZM41.0229 26.659L41.2411 26.781M41.0229 26.659C41.0227 26.6593 41.0226 26.6595 41.0225 26.6598L41.2411 26.781M41.0229 26.659C41.1204 26.4831 41.2323 26.3135 41.3378 26.1536C41.359 26.1215 41.3799 26.0898 41.4004 26.0585C41.5262 25.8666 41.6393 25.6855 41.7256 25.4966L41.7258 25.4963C42.2978 24.2492 42.639 22.919 42.9326 21.5609M41.2411 26.781C41.3336 26.6141 41.4394 26.4538 41.545 26.2937C41.6937 26.0682 41.8422 25.8431 41.953 25.6005C42.5368 24.3279 42.8825 22.9758 43.177 21.6135M42.9326 21.5609L43.177 21.6135M42.9326 21.5609C42.9326 21.5608 42.9326 21.5608 42.9326 21.5607L43.177 21.6135M42.9326 21.5609C43.1067 20.7526 43.1124 20.0152 42.5944 19.3829M43.177 21.6135C43.3562 20.7813 43.3793 19.9466 42.7878 19.2244M38.3092 31.6616C38.2938 31.5694 38.3655 31.4414 38.4321 31.3543C39.2796 30.2481 40.1221 29.1342 40.7187 27.8616L38.3092 31.6616ZM38.3092 31.6616C38.4935 32.7653 38.1171 33.7383 37.6716 34.7165L38.3092 31.6616ZM42.7878 19.2244L42.595 19.3837C42.5948 19.3834 42.5946 19.3831 42.5944 19.3829M42.7878 19.2244L42.5944 19.3829M42.7878 19.2244L31.6565 0.00920068L31.7128 0.247645M42.5944 19.3829C42.5199 19.2922 42.5035 19.1816 42.4992 19.1158C42.4944 19.0407 42.502 18.9652 42.515 18.9037L42.5155 18.9016C42.5836 18.5936 42.6563 18.2937 42.7283 17.9968C42.8424 17.5262 42.9547 17.0631 43.0439 16.587L43.0439 16.5869C43.3902 14.7419 43.4542 12.8961 43.0755 11.0578C42.8622 10.0236 42.5208 9.0498 41.9443 8.18014L41.9443 8.18006C41.687 7.79157 41.4146 7.41574 41.1271 7.05257L41.1269 7.05234C41.0295 6.92902 40.9358 6.80644 40.8435 6.68573C40.5483 6.29946 40.2678 5.93245 39.928 5.62252C38.5937 4.40731 36.962 3.74776 35.1947 3.32798C35.1703 3.32234 35.1452 3.31665 35.1196 3.31084C34.8815 3.25679 34.599 3.1927 34.3522 3.06278C33.177 2.45112 32.2633 1.56178 31.7101 0.326475M31.7101 0.326475L31.9382 0.224297L31.7102 0.326694C31.7101 0.326621 31.7101 0.326549 31.7101 0.326475ZM31.7101 0.326475C31.7021 0.308812 31.6948 0.291254 31.6889 0.277127L31.6874 0.273729C31.6854 0.268853 31.6835 0.264378 31.6818 0.26022M31.6818 0.26022C31.6924 0.257629 31.7032 0.255064 31.7139 0.252522L31.7128 0.247645M31.6818 0.26022C31.2099 0.374643 30.8258 0.538968 30.5896 0.881038L30.5894 0.881293C30.4997 1.01086 30.4268 1.15957 30.3532 1.32852C30.3285 1.38528 30.3027 1.44685 30.276 1.51072C30.2274 1.62674 30.1756 1.75037 30.1213 1.8666L30.027 2.06827L29.8158 1.99787C29.8146 1.99749 29.8115 1.99667 29.8066 1.99538C29.7665 1.98485 29.6096 1.94361 29.4924 1.86964L29.4922 1.86948C29.3404 1.77334 29.2238 1.75597 29.1291 1.77217C29.0292 1.78926 28.9158 1.85025 28.7869 1.98026M31.6818 0.26022L28.7869 1.98026M31.7128 0.247645C31.7228 0.250232 31.7288 0.250003 31.7288 0.249993C31.7288 0.249985 31.7241 0.25015 31.7135 0.252638L31.7123 0.247504C31.7123 0.247512 31.7123 0.24752 31.7123 0.247529C31.7125 0.247568 31.7126 0.247607 31.7128 0.247645ZM28.7869 1.98026C28.787 1.98014 28.7871 1.98003 28.7872 1.97992L28.6094 1.80423L28.7869 1.98026ZM28.7869 1.98026C28.6629 2.10563 28.5057 2.21388 28.3135 2.23032C28.1131 2.24747 27.9349 2.16043 27.7842 2.02114L27.784 2.02099C27.5499 1.80435 27.3124 1.71418 27.0691 1.69978C26.8187 1.68496 26.5449 1.74956 26.2447 1.87367M28.7869 1.98026L27.9538 1.83752C27.4033 1.32794 26.7862 1.37916 26.1486 1.64291M26.2447 1.87367C26.2449 1.87359 26.2451 1.87351 26.2453 1.87342L26.1486 1.64291M26.2447 1.87367C26.2445 1.87375 26.2443 1.87384 26.2441 1.87392L26.1486 1.64291M26.2447 1.87367C26.0392 1.95993 25.8352 2.04809 25.6345 2.14091M26.1486 1.64291C25.9411 1.72997 25.7337 1.81959 25.5289 1.91434M21.5752 33.9764C22.7326 36.7548 24.164 39.3718 25.9847 41.7737C26.0564 41.871 26.1614 41.9606 26.2715 42.0118L21.5752 33.9764ZM21.5752 33.9764C21.3985 33.5539 21.2551 33.1493 21.3319 32.6756L21.5752 33.9764ZM25.5289 1.91434L25.6353 2.14057C25.635 2.14068 25.6348 2.1408 25.6345 2.14091M25.5289 1.91434C23.1167 3.04871 20.9504 4.51341 19.2424 6.59011M25.5289 1.91434L25.6338 2.14124C25.6341 2.14113 25.6343 2.14102 25.6345 2.14091M25.6345 2.14091C23.2454 3.26456 21.1132 4.70902 19.4356 6.74881M19.2424 6.59011L19.4356 6.74881M19.2424 6.59011C17.9109 8.21102 17.1401 10.047 17.0838 12.1698M19.2424 6.59011L19.4355 6.74892C19.4355 6.74888 19.4356 6.74884 19.4356 6.74881M19.4356 6.74881C18.135 8.33204 17.3884 10.1157 17.3337 12.1763L17.0838 12.1698M17.0838 12.1698L17.3337 12.1764M17.0838 12.1698C17.0249 14.4437 17.2912 16.6843 17.6446 18.8147L17.3337 12.1764" stroke="#208F4F" stroke-width="0.5"/>
<path d="M19.7433 43.6613L19.744 43.6584C19.7526 43.6274 19.7548 43.5826 19.7479 43.5308C19.7219 43.3661 19.6931 43.1982 19.664 43.0286C19.6098 42.7123 19.5545 42.39 19.5142 42.0715M19.7433 43.6613L19.3244 38.3808L19.0758 38.4074C19.0758 38.4076 19.0759 38.4078 19.0759 38.4081C19.2067 39.6318 19.358 40.8524 19.5142 42.0715M19.7433 43.6613C19.5827 44.2715 19.4203 44.8826 19.2579 45.4939C19.0455 46.2931 18.833 47.0929 18.6241 47.8919L18.6241 47.892M19.7433 43.6613L18.6241 47.892M19.5142 42.0715C19.5142 42.0714 19.5142 42.0714 19.5142 42.0713L19.7623 42.04L19.5143 42.0718C19.5143 42.0717 19.5143 42.0716 19.5142 42.0715ZM18.6241 47.892C18.6015 47.9786 18.5789 48.0652 18.5562 48.1519C18.3634 48.8892 18.1687 49.6336 18.007 50.3865C17.5633 52.452 18.7937 54.3474 20.8476 54.7807L20.8479 54.7807M18.6241 47.892L20.8479 54.7807M20.8479 54.7807C20.9262 54.7971 21.0087 54.8094 21.0922 54.82C21.0305 55.016 20.9723 55.2001 20.909 55.3832C20.8094 55.6679 20.7099 55.9525 20.6105 56.2371C19.9985 57.9876 19.3874 59.7359 18.7686 61.4842L18.7685 61.4847M20.8479 54.7807L18.7685 61.4847M18.7685 61.4847C18.5603 62.0765 18.4617 62.6821 18.4837 63.322M18.7685 61.4847L18.4837 63.322M18.4837 63.322C18.4102 63.3173 18.3375 63.3127 18.2654 63.3082C17.9018 63.2853 17.5528 63.2633 17.202 63.2267L17.2014 63.2266C17.1224 63.2186 17.0434 63.2105 16.9644 63.2024C15.8394 63.0877 14.7187 62.9734 13.6029 62.828L13.4642 62.8099C12.1367 62.6366 10.8155 62.4641 9.50952 62.2182C8.02282 61.9377 6.54544 61.6009 5.07965 61.2281C3.87591 60.9214 2.7099 60.5164 1.64938 59.8926L1.64902 59.8924C1.27089 59.6708 0.926534 59.374 0.577473 59.0635L0.576969 59.063C0.300286 58.8182 0.210834 58.4858 0.264833 58.0741L0.264952 58.0732C0.547441 55.854 1.01054 53.6735 1.66685 51.5341C2.33718 49.353 3.25203 47.2761 4.33675 45.2594L4.33678 45.2593C5.59474 42.9196 7.63274 41.6275 10.0972 40.8153L18.4837 63.322ZM19.2066 36.5602C19.2125 36.6531 19.2178 36.7461 19.2227 36.8391C19.1416 36.8858 19.0606 36.9327 18.9797 36.9799C18.9749 36.8858 18.9699 36.7922 18.9646 36.6995C19.0448 36.653 19.1255 36.6065 19.2066 36.5602Z" stroke="#208F4F" stroke-width="0.5"/>
<path d="M40.6291 37.3104C40.6353 37.225 40.6415 37.1395 40.6478 37.0538C41.7167 37.7356 42.8544 38.2773 44.0003 38.7836C45.5054 39.4493 47.0593 39.9921 48.6023 40.5311C49.1415 40.7194 49.6794 40.9073 50.2134 41.0998L50.2134 41.0998C51.6939 41.6334 53.0128 42.4567 54.0481 43.6434C54.4641 44.1205 54.7899 44.6882 55.1239 45.27C55.1382 45.2949 55.1525 45.3198 55.1668 45.3447C56.4451 47.574 57.3699 49.9483 58.062 52.4292C58.581 54.2913 58.9552 56.1823 59.2073 58.0998C59.2799 58.6567 59.0041 59.0353 58.5444 59.4098C57.8899 59.9421 57.124 60.2892 56.3118 60.5963L56.3115 60.5965C54.2433 61.3822 52.0897 61.8704 49.902 62.2274C48.0483 62.5287 46.181 62.7688 44.3117 63.007C43.5595 63.0959 42.8093 63.164 42.0518 63.2327C41.7005 63.2646 41.3477 63.2966 40.9925 63.3309C40.9922 63.2967 40.9921 63.2628 40.9919 63.2287C40.9917 63.157 40.9914 63.0847 40.9898 63.0086C40.9859 62.8174 40.9733 62.6191 40.9222 62.4237C40.7125 61.6212 40.4567 60.8309 40.1924 60.0509L40.1924 60.0507C39.8453 59.0286 39.4868 58.0089 39.129 56.9913C39.0058 56.641 38.8827 56.291 38.7602 55.9412C38.6298 55.5685 38.4993 55.1975 38.3662 54.8201C38.3739 54.8185 38.3817 54.817 38.3895 54.8154C38.6217 54.7693 38.8597 54.7219 39.0794 54.6512C40.6401 54.1511 41.6982 52.6263 41.5152 50.9824L41.5152 50.9823C41.4365 50.2766 41.261 49.5755 41.0913 48.8977C41.0516 48.7392 41.0122 48.582 40.9745 48.4263L40.9744 48.426C40.9469 48.3128 40.9193 48.1995 40.8917 48.0861C40.5767 46.7915 40.2601 45.4903 39.8913 44.204L39.8911 44.2035C39.8191 43.9541 39.8254 43.7126 39.8623 43.4546C39.8786 43.3401 39.9002 43.2267 39.9231 43.1067C39.9264 43.0897 39.9296 43.0725 39.9329 43.0552C39.9589 42.9186 39.9853 42.774 40.0018 42.626L40.0019 42.6254C40.0803 41.9085 40.1767 41.2073 40.2737 40.5019C40.3521 39.9313 40.431 39.358 40.5009 38.7715L40.5009 38.7714C40.5582 38.2898 40.5935 37.8022 40.6291 37.3104Z" stroke="#208F4F" stroke-width="0.5"/>
<path d="M29.7207 51.9062C29.4774 52.8895 29.247 53.7986 29.0268 54.7076C28.4301 57.194 27.836 59.6804 27.2497 62.1668C27.1063 62.7788 26.886 63.3217 26.3278 63.6802C25.9924 63.8953 25.6313 63.9926 25.2421 63.9926C24.4457 63.9951 23.6468 63.9951 22.8504 63.9926C21.7263 63.9926 21.3473 63.4395 21.7212 62.3742C22.5047 60.1567 23.2781 57.9341 24.0539 55.714C24.607 54.134 25.1627 52.5515 25.7133 50.9716C25.8106 50.695 25.954 50.3878 25.6979 50.1419C25.4239 49.8807 25.1192 50.0677 24.8503 50.1983C23.931 50.6438 23.0194 51.1022 22.1053 51.5529C21.8108 51.6988 21.4856 51.8627 21.1937 51.6246C20.8992 51.3839 21.0144 51.0382 21.0964 50.7207C21.5701 48.8488 22.0413 46.977 22.5124 45.1051C22.7429 44.1935 23.465 43.8529 24.3202 44.2473C26.0231 45.0308 27.7259 45.8144 29.4237 46.6031C29.6311 46.7004 29.7975 46.7158 30.0229 46.6082C31.7103 45.8144 33.4055 45.0411 35.0981 44.2601C35.5309 44.0604 35.9585 43.9989 36.3912 44.2626C36.7011 44.4496 36.847 44.7415 36.9315 45.0718C37.4232 46.9974 37.9123 48.9256 38.3988 50.8538C38.4321 50.9844 38.4449 51.1278 38.4347 51.2635C38.409 51.5913 38.2093 51.7603 37.8815 51.7244C37.7202 51.7065 37.5512 51.6579 37.4053 51.5862C36.4706 51.1304 35.5411 50.6643 34.609 50.2008C34.5117 50.1522 34.4144 50.1061 34.312 50.0754C33.7614 49.914 33.4977 50.1573 33.6641 50.7104C33.8587 51.3557 34.0994 51.9907 34.3222 52.6283C35.3926 55.7011 36.4629 58.7739 37.5359 61.8467C37.6383 62.1438 37.7561 62.4357 37.8406 62.7353C38.0198 63.3601 37.6972 63.8825 37.0596 63.9567C36.6038 64.0105 36.1377 63.99 35.6742 63.9951C35.1724 64.0003 34.6705 64.0028 34.1686 63.9951C33.2749 63.9823 32.5349 63.4113 32.3198 62.5433C31.9049 60.8788 31.508 59.2093 31.106 57.5423C30.6656 55.714 30.2277 53.8831 29.7873 52.0548C29.7796 52.0317 29.7642 52.0061 29.7207 51.9062Z" fill="#208F4F"/>
</svg>
