<?xml version="1.0" encoding="utf-8"?>
<!-- Generator: Adobe Illustrator 24.0.1, SVG Export Plug-In . SVG Version: 6.00 Build 0)  -->
<svg version="1.1" id="Layer_1" xmlns="http://www.w3.org/2000/svg" xmlns:xlink="http://www.w3.org/1999/xlink" x="0px" y="0px"
	 viewBox="0 0 1000 1000" style="enable-background:new 0 0 1000 1000;" xml:space="preserve">
<style type="text/css">
	.st0{fill:#fefefe;}
	.st1{fill:#414042;}
	.st2{fill:#E6E7E8;}
	.st3{fill:#D1D3D4;}
</style>
<g>
	<circle class="st0" cx="500" cy="493.99" r="460.58"/>
	<path class="st1" d="M500,964.26c-259.31,0-470.27-210.96-470.27-470.27S240.69,23.72,500,23.72s470.27,210.96,470.27,470.27
		S759.31,964.26,500,964.26z M500,43.1c-248.62,0-450.89,202.27-450.89,450.89c0,248.62,202.27,450.89,450.89,450.89
		c248.62,0,450.89-202.27,450.89-450.89C950.89,245.37,748.62,43.1,500,43.1z"/>
	<path class="st1" d="M500,960.06c-256.99,0-466.07-209.08-466.07-466.07C33.93,237,243.01,27.92,500,27.92
		c256.99,0,466.07,209.08,466.07,466.07C966.07,750.98,756.99,960.06,500,960.06z M500,38.9c-250.94,0-455.09,204.15-455.09,455.09
		c0,250.94,204.15,455.09,455.09,455.09s455.09-204.15,455.09-455.09C955.09,243.05,750.94,38.9,500,38.9z"/>
</g>
<g>
	<g>
		<g>
			<path class="st1" d="M850.62,461.7h-2.18h-6.74l-86.88-212.98c-0.98-2.4-4.37-2.41-5.37-0.02l0,0v0.09L662.5,461.7h-6.95h-1.85
				c-2.19,0-3.54,2.39-2.41,4.27h0c12.38,20.54,34.61,33.1,58.6,33.1h84.56c23.98,0,46.22-12.56,58.6-33.1h0
				C854.17,464.1,852.81,461.7,850.62,461.7z M668.31,461.7l81.16-198.67V461.7H668.31z M754.85,461.7V263.05l81.03,198.66H754.85z"
				/>
			<path class="st1" d="M346.3,461.7h-2.18h-6.74l-86.88-212.98c-0.98-2.4-4.37-2.41-5.37-0.02l0,0v0.09L158.18,461.7h-6.95h-1.85
				c-2.19,0-3.54,2.39-2.41,4.27h0c12.38,20.54,34.61,33.1,58.6,33.1h84.56c23.98,0,46.22-12.56,58.6-33.1h0
				C349.84,464.1,348.49,461.7,346.3,461.7z M163.99,461.7l81.16-198.67V461.7H163.99z M250.53,461.7V263.05l81.03,198.66H250.53z"
				/>
			<g>
				<path class="st1" d="M698.17,239.3c-10.97,0-21.22,0-31.46,0c-1.94,0-3.9-0.16-5.82,0.03c-11.23,1.11-20.43-1.35-29.49-9.51
					c-13.74-12.38-31.93-15.48-49.85-17.86c-20.97-2.79-42.09-3-63.19-3.8c-5.03-0.19-6.03,1.48-6.03,6.13
					c0.13,102.2,0.14,204.4,0,306.6c-0.01,4.43,1.25,5.46,5.49,6.12c11.23,1.75,14.34,4.67,12.92,15.91
					c-2.08,16.42,2.43,26.64,19.01,32.73c12.19,4.47,22.1,13.86,29.93,24.72c0.99,1.37,1.93,2.79,2.78,4.25
					c8.82,15.27,7.19,18.26-9.9,18.26c-50.98,0-101.96,0-152.94,0c-7.99,0-8.15-0.29-6.07-8.22c3.25-12.38,11.47-21.14,21.02-28.87
					c8.89-7.2,18.68-13.03,29.26-17.38c3.93-1.62,5.62-3.66,5.33-8.05c-0.41-6.04-0.12-12.13-0.1-18.2
					c0.03-10.51,1.97-13.35,12.57-14.95c4.98-0.76,6-2.43,5.99-7.2c-0.16-101.23-0.19-202.46,0.04-303.69
					c0.02-6.77-1.78-8.42-8.4-8.14c-27.61,1.17-55.31,1.13-82.37,7.97c-13.65,3.45-25.78,9.83-35.86,19.69
					c-2.68,2.62-5.33,3.57-8.98,3.53c-16.45-0.16-32.9-0.07-50.11-0.07l-42.61,0.25c-9.97-0.46-19.3-0.47-28.53-1.42
					c-14.04-1.44-20.84-15.5-13.22-26.65c2.07-3.02,4.75-5.37,8.66-6.55c1.18,3.67,3.01,6.72-0.14,10.72
					c-5.31,6.74-1.94,13.32,7.04,13.66c8.96,0.34,17.96,0,26.93-0.41c25.45-1.17,50.9-2.53,76.35-3.78
					c2.68-0.13,5.14-0.11,7.21-2.48c19.74-22.48,46.44-30.52,74.53-35.53c13.13-2.34,26.34-4.24,39.7-4.66
					c4.29-0.13,7.03-0.83,4.42-6.13c-2.55-5.17-0.7-7.56,5.12-6.59c0.71,0.12,1.47,0.12,2.18,0c5.69-1.02,15.28,2.97,16.43-2.01
					c1.94-8.41,3.83-18.65-4.41-26.58c-4.49-4.32-7.63-10.02-11.7-14.81c-2.42-2.85-2.24-4.3,0.67-6.86
					c6.81-5.99,13.89-10.07,23.46-8.6c4.27,0.66,8.85,0.78,13.07-0.03c9.94-1.91,16.37,3.88,23.24,9.27
					c2.71,2.13,2.03,3.68,0.22,5.84c-2.8,3.34-4.93,7.38-8.12,10.24c-8.92,8-10.04,18.06-9.2,29.07c0.26,3.38,0.96,4.68,4.51,4.55
					c7.01-0.24,14.02-0.07,20.94-0.07c0.15,0.7,0.27,0.95,0.24,1.18c-1.68,11.16-1.65,10.86,10.28,11.88
					c22.72,1.96,45.14,5.62,66.85,12.97c15.3,5.18,28.05,14.08,39.21,25.49c2.07,2.11,3.96,3.74,7.32,3.88
					c32.98,1.31,65.95,2.86,98.92,4.29c2.42,0.11,4.9,0.17,7.26-0.25c7.48-1.31,9.88-7.13,5.63-13.31c-0.4-0.59-1.21-0.93-1.51-1.55
					c-1.54-3.12-1.02-6.77,1.03-8.71c1.8-1.71,4.19,1.24,5.84,2.75c5.27,4.84,7.13,10.81,5.06,17.78
					c-2.19,7.4-7.61,11.22-14.9,11.89c-9.4,0.86-18.87,1-29.1,1.48L698.17,239.3z"/>
				<path class="st1" d="M638.81,663.37c-51.03-2.21-96.4,9.23-135.16,41.8c-2.28,1.92-3.85,2.97-6.79,0.47
					c-38.76-32.96-84.33-44.49-135.5-42.26c6.06-6.43,12.29-10.6,20.45-10.85c3.55-0.11,5.49-1.05,7.35-4.26
					c8.12-13.99,19.93-21.55,36.71-21.46c49.49,0.27,98.97,0.27,148.46,0.02c16.51-0.08,28.21,7.3,36.33,21.02
					c1.92,3.24,3.76,4.7,7.74,4.73C626.44,652.63,632.55,657,638.81,663.37z"/>
				<path class="st1" d="M664.46,728.13c-0.89-22.32-5.65-43.2-18.87-61.34l-7.1-0.31c-3.95-0.17-7.89-0.26-11.71-0.26
					c-47.37,0-86.11,13.2-118.43,40.35c-1.52,1.28-4.35,3.65-8.38,3.65c-2.75,0-5.32-1.05-7.87-3.22
					c-32.27-27.44-71.09-40.78-118.67-40.78c-3.84,0-7.8,0.09-11.77,0.26l-7.26,0.32c-13.25,18.11-17.92,39-18.87,61.28
					c-0.33,7.81,1.26,10.84,10.04,10.81c102.93-0.32,205.85-0.32,308.78,0C663.07,738.93,664.77,736.01,664.46,728.13z"/>
			</g>
		</g>
	</g>
	<g>
		<g>
			<path class="st2" d="M713.87,782.84c-1.19-5.5-1.77-11.08-4.78-16.45l-2.16-5.94c-17.5-0.11-35.01-0.04-52.51-0.04
				c-39.77,0-79.54,0-119.31,0v80.09c56.26,0,112.52,0.05,168.78-0.05c1.9-0.18,3.99-0.1,5.35-1.02c0.11-1.41,0.03-2.81,0.52-4.24
				c2.83-8.26,5.57-16.53,5.44-24.97C715.07,801.09,715.84,791.93,713.87,782.84z"/>
		</g>
		<path class="st2" d="M664.82,897.67c-1.03-5.5-1.52-11.08-4.13-16.45l-1.86-5.94c-15.1-0.11-30.19-0.04-45.29-0.04
			c-77.89-0.01-155.78-0.01-233.66,0c-4.73,0-7.23,0.16-8.94,1.02c-39.57,0-79.15,0-118.72,0c-1.71,0-3.42-0.08-5.13-0.12
			c-2.22,0.05-4.45,0.15-6.67,0.15c-1.76,0-3.53,0-5.29,0v78.09c1.61,0,3.21,0,4.82,0c1.71,0,3.42,0.05,5.14,0.08
			c1.38-0.06,2.76-0.13,4.14-0.19c2.23,0.03,4.45,0.1,6.68,0.1c38.45,0,76.9,0,115.35,0c1.53,0.91,3.98,0.96,9.09,0.96
			c36.37,0.01,72.74,0.02,109.11,0c55.58-0.02,111.17,0.06,166.75-0.05c1.64-0.18,3.44-0.1,4.62-1.02c0.09-1.41,0.03-2.81,0.45-4.24
			c2.44-8.26,4.8-16.53,4.7-24.97C665.85,915.92,666.52,906.77,664.82,897.67z"/>
		<path class="st3" d="M629.82,782.84c-0.32-5.5-0.47-11.08-1.28-16.45l-0.58-5.94c-4.69-0.11-9.38-0.04-14.08-0.04
			c-24.21-0.01-48.42-0.01-72.62,0c-2.81,0-3.11,0.5-3.94,5.6c-1.23,7.53-1.85,15.29-2.02,23.11c-0.35,15.42,0.49,30.67,2.36,45.7
			c0.69,5.53,0.81,5.68,3.75,5.68c11.3,0.01,22.61,0.02,33.91,0c17.28-0.02,34.55,0.06,51.83-0.05c0.51-0.18,1.07-0.1,1.43-1.02
			c0.03-1.41,0.01-2.81,0.14-4.24c0.76-8.26,1.49-16.53,1.46-24.97C630.14,801.09,630.35,791.93,629.82,782.84z M547.67,776.16
			c0.06-1.2,0.31-1.88,0.87-1.93c0.33-0.03,0.66-0.03,0.99-0.03c21.77,0,43.54,0,65.31,0c0.38,0,0.75-0.03,1.12,0.07
			c0.59,0.15,0.73,1.08,0.72,2.21c-0.01,1.04-0.2,1.8-0.71,1.93c-0.37,0.09-0.75,0.06-1.12,0.07c-10.93,0-21.86,0-32.8,0.01
			c-10.98,0-21.96,0-32.94,0C548.37,778.47,547.53,778.83,547.67,776.16z M615.83,826.69c-0.23-0.03-0.47,0-0.7,0
			c-21.96,0-43.92,0-65.89,0c-0.23,0-0.47-0.03-0.7,0c-0.57,0.06-0.86-0.4-0.87-1.74c-0.01-1.49,0.3-1.99,0.94-1.92
			c0.42,0.05,0.84,0,1.27,0c10.79,0,21.59,0,32.38,0c10.84,0,21.68,0,32.52,0c0.38,0,0.75,0.03,1.13,0c0.62-0.05,0.8,0.68,0.8,1.9
			C616.7,826.25,616.41,826.76,615.83,826.69z M615.96,802.28c-0.38-0.02-0.75,0.01-1.13,0.01c-10.93,0-21.87,0-32.8,0
			c-10.84,0-21.68,0-32.52,0c-0.38,0-0.75-0.03-1.13-0.02c-0.56,0.02-0.71-0.7-0.71-1.76c0-1.01,0.08-1.85,0.66-1.86
			c0.33-0.01,0.66-0.02,0.99-0.02c21.91,0,43.83,0,65.74,0c0.28,0,0.56,0.03,0.84,0c0.63-0.05,0.79,0.73,0.78,1.93
			C616.69,801.65,616.51,802.3,615.96,802.28z M616.69,812.79c0,0.91-0.1,1.63-0.6,1.67c-0.38,0.03-0.75,0.03-1.13,0.03
			c-21.74,0-43.47,0.01-65.21-0.05c-0.76,0-2.09,1.17-2.03-2.03c0.06-3.01,1.33-1.52,2.01-1.53c10.8-0.11,21.59-0.08,32.39-0.07
			c10.94,0,21.88,0,32.81,0c0.38,0,0.75,0,1.13,0.03C616.66,810.9,616.69,811.82,616.69,812.79z M615.07,790.67
			c-21.93,0-43.85,0-65.78-0.02c-0.54,0-1.16,0.41-1.52-0.97c-0.48-1.85,0.02-3.27,1.17-3.28c6.15-0.01,12.3,0,18.45,0
			c4.98,0,9.95,0,14.93,0c10.94,0,21.88-0.01,32.82,0.03c0.6,0,1.51-0.89,1.55,1.76C616.74,790.93,615.88,790.67,615.07,790.67z"/>
		<path class="st1" d="M287.38,749.47h436.03v12.9h-179.2c0,0-7.73,8.12-7.83,39.15c-0.1,31.03,6.31,38.59,6.31,38.59h179.06v12.76
			H284.31c0,0-12.21-17.99-12.21-52.6C272.1,765.66,287.38,749.47,287.38,749.47z"/>
		<path class="st3" d="M420.22,897.67c-0.61-5.5-0.91-11.08-2.46-16.45l-1.11-5.94c-8.99-0.11-17.98-0.04-26.96-0.04
			c-46.38-0.01-92.75-0.01-139.13,0c-5.38,0-5.95,0.5-7.55,5.6c-2.36,7.53-3.54,15.29-3.88,23.11c-0.66,15.42,0.93,30.67,4.53,45.7
			c1.32,5.53,1.54,5.68,7.18,5.68c21.66,0.01,43.31,0.02,64.97,0c33.1-0.02,66.19,0.06,99.29-0.05c0.98-0.18,2.05-0.1,2.75-1.02
			c0.05-1.41,0.02-2.81,0.27-4.24c1.45-8.26,2.86-16.53,2.8-24.97C420.84,915.92,421.24,906.77,420.22,897.67z M255.97,890.99
			c0.14-1.2,0.67-1.88,1.9-1.93c0.71-0.03,1.43-0.03,2.14-0.03c47.38,0,94.75,0,142.13,0c0.82,0,1.64-0.03,2.45,0.07
			c1.29,0.15,1.59,1.08,1.56,2.21c-0.02,1.04-0.43,1.8-1.54,1.93c-0.81,0.09-1.63,0.06-2.45,0.07c-23.79,0-47.58,0-71.37,0.01
			c-23.89,0-47.79,0-71.68,0C257.5,893.31,255.66,893.67,255.97,890.99z M404.31,941.53c-0.51-0.03-1.02,0-1.53,0
			c-47.79,0-95.59,0-143.38,0c-0.51,0-1.02-0.03-1.53,0c-1.24,0.06-1.88-0.4-1.9-1.74c-0.03-1.49,0.66-1.99,2.04-1.92
			c0.92,0.05,1.84,0,2.76,0c23.49,0,46.98,0,70.46,0c23.59,0,47.18,0,70.77,0c0.82,0,1.63,0.03,2.45,0c1.35-0.05,1.74,0.68,1.74,1.9
			C406.19,941.09,405.57,941.6,404.31,941.53z M404.59,917.11c-0.82-0.02-1.63,0.01-2.45,0.01c-23.79,0-47.59,0-71.38,0
			c-23.59,0-47.18,0-70.77,0c-0.82,0-1.63-0.03-2.45-0.02c-1.23,0.02-1.56-0.7-1.55-1.76c0-1.01,0.17-1.85,1.44-1.86
			c0.71-0.01,1.43-0.02,2.14-0.02c47.69,0,95.38,0,143.07,0c0.61,0,1.23,0.03,1.84,0c1.37-0.05,1.73,0.73,1.71,1.93
			C406.16,916.48,405.78,917.13,404.59,917.11z M406.17,927.62c0,0.91-0.23,1.63-1.31,1.67c-0.82,0.03-1.63,0.03-2.45,0.03
			c-47.3,0-94.6,0.01-141.9-0.05c-1.64,0-4.54,1.17-4.41-2.03c0.12-3.01,2.9-1.52,4.37-1.53c23.5-0.11,46.99-0.08,70.49-0.07
			c23.8,0,47.61,0,71.41,0c0.82,0,1.63,0,2.45,0.03C406.11,925.73,406.17,926.65,406.17,927.62z M402.65,905.51
			c-47.72,0-95.44,0-143.15-0.02c-1.17,0-2.53,0.41-3.3-0.97c-1.04-1.85,0.04-3.27,2.54-3.28c13.39-0.01,26.77,0,40.16,0
			c10.83,0,21.66,0,32.49,0c23.81,0,47.62-0.01,71.42,0.03c1.3,0,3.29-0.89,3.38,1.76C406.28,905.76,404.41,905.51,402.65,905.51z"
			/>
		<path class="st1" d="M664.92,954.36c-0.2-0.01-0.4-0.06-0.61-0.08c-0.51,0.03-1.01,0.1-1.52,0.1c-80.32,0-160.64-0.01-240.97-0.02
			c-1.32,0-2.65-0.06-3.97-0.1c-0.82,0.06-1.64,0.13-2.47,0.19c-1.02-0.03-2.04-0.08-3.06-0.08c-54.43,0-108.86-0.03-163.29,0.06
			c-2.69,0-3.59-0.84-4.15-3.35c-2.33-10.33-4.04-20.75-4.66-31.31c-0.8-13.56-0.05-27,4.13-40.08c0.78-2.44,1.84-3.47,4.65-3.46
			c54.53,0.1,109.06,0.07,163.59,0.06c1.32,0,2.65-0.1,3.97-0.15c1.02,0.04,2.04,0.12,3.05,0.12c57.12,0.01,114.24,0.01,171.36,0
			c26.67-0.01,53.34-0.05,80.01-0.07c0.03-2.74,0.07-5.49,0.08-8.23c0.01-3.98,0-3.99-4.09-3.99c-82.55,0-165.09,0-247.64,0
			c-1.05,0-2.11,0.07-3.16,0.11c-0.13-0.13-0.29-0.23-0.47-0.32c-0.2-0.01-0.41-0.03-0.61-0.03c-60.43-0.01-120.86,0-181.28,0.01
			c-0.79,0-1.65-0.26-2.34,0.38c-4.61,10.27-7.5,21.02-8.59,32.21c-2.22,22.78,1.11,44.94,7.47,66.79c0.81,2.79,1.97,3.72,4.97,3.71
			c59.21-0.1,118.42-0.07,177.63-0.08c1.02,0,2.03-0.1,3.05-0.15c0.81,0.05,1.62,0.14,2.44,0.14c82.33,0.01,164.66,0.01,246.99,0
			c5.64,0,5.64-0.01,5.66-5.81C671.11,954.55,671.11,954.55,664.92,954.36z"/>
	</g>
</g>
</svg>
