<svg width="28" height="24" viewBox="0 0 28 24" fill="none" xmlns="http://www.w3.org/2000/svg">
<path d="M14.9124 0.9V3H17.3171C17.7444 3 18.1621 3.1272 18.5152 3.3636L20.5813 4.7484C20.6325 4.782 20.6893 4.7992 20.7518 4.8H25.7462C25.9883 4.8 26.2206 4.89482 26.3918 5.0636C26.5631 5.23239 26.6593 5.46131 26.6593 5.7C26.6593 5.93869 26.5631 6.16761 26.3918 6.3364C26.2206 6.50518 25.9883 6.6 25.7462 6.6H23.8249L27.9231 15.816C28.0051 16.0003 28.0221 16.2063 27.9713 16.4012C27.9206 16.5961 27.805 16.7686 27.6431 16.8912C27.5213 16.98 27.3955 17.0624 27.2656 17.1384C26.9574 17.3211 26.6359 17.4812 26.3038 17.6172C25.2025 18.0711 24.0202 18.3033 22.8265 18.3C21.6331 18.3051 20.4509 18.0733 19.3504 17.6184C19.0182 17.482 18.6967 17.3215 18.3885 17.1384C18.259 17.0652 18.1342 16.9843 18.0147 16.896L18.0087 16.8912C17.8467 16.7686 17.7312 16.5961 17.6804 16.4012C17.6297 16.2063 17.6466 16.0003 17.7286 15.816L21.8293 6.6H20.7506C20.3232 6.6 19.9056 6.4728 19.5525 6.2364L17.4863 4.8516C17.436 4.81802 17.3766 4.80004 17.3159 4.8H14.9124V22.2H20.3756C20.6177 22.2 20.85 22.2948 21.0213 22.4636C21.1925 22.6324 21.2887 22.8613 21.2887 23.1C21.2887 23.3387 21.1925 23.5676 21.0213 23.7364C20.85 23.9052 20.6177 24 20.3756 24H7.623C7.38082 24 7.14855 23.9052 6.9773 23.7364C6.80605 23.5676 6.70984 23.3387 6.70984 23.1C6.70984 22.8613 6.80605 22.6324 6.9773 22.4636C7.14855 22.2948 7.38082 22.2 7.623 22.2H13.0861V4.8H10.6815C10.6207 4.80004 10.5613 4.81802 10.511 4.8516L8.44606 6.2364C8.09297 6.4728 7.67536 6.6 7.248 6.6H6.16925L10.2699 15.816C10.3493 15.995 10.3674 16.1947 10.3215 16.3847C10.2756 16.5748 10.1682 16.745 10.0155 16.8696C9.91807 16.9476 9.82067 17.0208 9.63804 17.1372C9.3303 17.334 9.00796 17.5077 8.67374 17.6568C7.57437 18.15 6.38 18.4038 5.17208 18.4008C3.96417 18.4038 2.7698 18.15 1.67043 17.6568C1.33621 17.5077 1.01387 17.334 0.706132 17.1372C0.576534 17.0547 0.450985 16.9662 0.32991 16.872C0.178101 16.7462 0.0713077 16.5757 0.0252736 16.3856C-0.0207605 16.1955 -0.00359969 15.9958 0.0742262 15.816L4.1737 6.6H2.25363C2.01145 6.6 1.77918 6.50518 1.60793 6.3364C1.43668 6.16761 1.34047 5.93869 1.34047 5.7C1.34047 5.46131 1.43668 5.23239 1.60793 5.0636C1.77918 4.89482 2.01145 4.8 2.25363 4.8H7.248C7.30969 4.8 7.36691 4.7828 7.41967 4.7484L9.48341 3.3636C9.8365 3.126 10.2553 3 10.6827 3H13.0861V0.9C13.0861 0.661305 13.1823 0.432387 13.3536 0.263604C13.5248 0.094821 13.7571 0 13.9993 0C14.2415 0 14.4737 0.094821 14.645 0.263604C14.8162 0.432387 14.9124 0.661305 14.9124 0.9ZM2.05882 15.8376C3.01683 16.341 4.08641 16.6028 5.17208 16.5996C6.25776 16.6028 7.32734 16.341 8.28535 15.8376L5.17208 8.8416L2.05882 15.8376ZM19.7254 15.8088C19.8252 15.8568 19.9368 15.9072 20.0602 15.96C20.7055 16.2276 21.6491 16.5 22.8265 16.5C23.8998 16.5028 24.9599 16.2665 25.9276 15.8088L22.8265 8.8404L19.7254 15.8088Z" fill="#d1d5db"/>
</svg>
